<?xml version="1.0" encoding="utf-8"?>
<!-- Generator: Adobe Illustrator 26.0.2, SVG Export Plug-In . SVG Version: 6.00 Build 0)  -->
<svg version="1.1" id="Слой_1" shape-rendering="crispEdges"
	 xmlns="http://www.w3.org/2000/svg" xmlns:xlink="http://www.w3.org/1999/xlink" x="0px" y="0px" viewBox="0 0 32 32"
	 style="enable-background:new 0 0 32 32;" xml:space="preserve">
<style type="text/css">
	.st0{fill:#ECF0C3;}
	.st1{fill:#ADB376;}
	.st2{fill:#989E65;}
	.st3{opacity:3.137300e-02;fill:#5E6B56;enable-background:new    ;}
	.st4{fill:#E2E5BF;}
	.st5{fill:#F5F8D2;}
	.st6{opacity:7.843000e-03;fill:#5E6B56;enable-background:new    ;}
	.st7{opacity:3.922000e-03;fill:#5E6B56;enable-background:new    ;}
	.st8{fill:#5E6B56;}
	.st9{fill:#1F2722;}
</style>
<rect x="-246" y="2" class="st0" width="2" height="2"/>
<rect x="-244" y="2" class="st0" width="2" height="2"/>
<rect x="-248" y="4" class="st0" width="2" height="2"/>
<rect x="-246" y="4" class="st1" width="2" height="2"/>
<rect x="-244" y="4" class="st1" width="2" height="2"/>
<rect x="-250" y="6" class="st0" width="2" height="2"/>
<rect x="-248" y="6" class="st1" width="2" height="2"/>
<rect x="-246" y="6" class="st1" width="2" height="2"/>
<rect x="-244" y="6" class="st1" width="2" height="2"/>
<rect x="-252" y="8" class="st0" width="2" height="2"/>
<rect x="-250" y="8" class="st1" width="2" height="2"/>
<rect x="-248" y="8" class="st1" width="2" height="2"/>
<rect x="-246" y="8" class="st2" width="2" height="2"/>
<rect x="-244" y="8" class="st2" width="2" height="2"/>
<rect x="-258" y="10" class="st0" width="2" height="2"/>
<rect x="-256" y="10" class="st0" width="2" height="2"/>
<rect x="-254" y="10" class="st1" width="2" height="2"/>
<rect x="-252" y="10" class="st1" width="2" height="2"/>
<rect x="-250" y="10" class="st1" width="2" height="2"/>
<rect x="-248" y="10" class="st2" width="2" height="2"/>
<rect x="-246" y="10" class="st2" width="2" height="2"/>
<rect x="-244" y="10" class="st2" width="2" height="2"/>
<rect x="-240" y="10" class="st2" width="2" height="2"/>
<rect x="-232" y="10" class="st2" width="2" height="2"/>
<rect x="-260" y="12" class="st1" width="2" height="2"/>
<rect x="-258" y="12" class="st1" width="2" height="2"/>
<rect x="-256" y="12" class="st1" width="2" height="2"/>
<rect x="-254" y="12" class="st2" width="2" height="2"/>
<rect x="-252" y="12" class="st2" width="2" height="2"/>
<rect x="-250" y="12" class="st2" width="2" height="2"/>
<rect x="-248" y="12" class="st2" width="2" height="2"/>
<rect x="-246" y="12" class="st2" width="2" height="2"/>
<rect x="-244" y="12" class="st2" width="2" height="2"/>
<rect x="-238" y="12" class="st2" width="2" height="2"/>
<rect x="-234" y="12" class="st2" width="2" height="2"/>
<rect x="-260" y="14" class="st1" width="2" height="2"/>
<rect x="-258" y="14" class="st2" width="2" height="2"/>
<rect x="-256" y="14" class="st2" width="2" height="2"/>
<rect x="-254" y="14" class="st2" width="2" height="2"/>
<rect x="-252" y="14" class="st2" width="2" height="2"/>
<rect x="-250" y="14" class="st2" width="2" height="2"/>
<rect x="-248" y="14" class="st2" width="2" height="2"/>
<rect x="-246" y="14" class="st2" width="2" height="2"/>
<rect x="-244" y="14" class="st2" width="2" height="2"/>
<rect x="-236" y="14" class="st2" width="2" height="2"/>
<rect x="-260" y="16" class="st2" width="2" height="2"/>
<rect x="-258" y="16" class="st2" width="2" height="2"/>
<rect x="-256" y="16" class="st2" width="2" height="2"/>
<rect x="-254" y="16" class="st2" width="2" height="2"/>
<rect x="-252" y="16" class="st2" width="2" height="2"/>
<rect x="-250" y="16" class="st2" width="2" height="2"/>
<rect x="-248" y="16" class="st2" width="2" height="2"/>
<rect x="-246" y="16" class="st2" width="2" height="2"/>
<rect x="-244" y="16" class="st2" width="2" height="2"/>
<rect x="-238" y="16" class="st2" width="2" height="2"/>
<rect x="-234" y="16" class="st2" width="2" height="2"/>
<rect x="-260" y="18" class="st2" width="2" height="2"/>
<rect x="-258" y="18" class="st2" width="2" height="2"/>
<rect x="-256" y="18" class="st2" width="2" height="2"/>
<rect x="-254" y="18" class="st2" width="2" height="2"/>
<rect x="-252" y="18" class="st2" width="2" height="2"/>
<rect x="-250" y="18" class="st2" width="2" height="2"/>
<rect x="-248" y="18" class="st2" width="2" height="2"/>
<rect x="-246" y="18" class="st2" width="2" height="2"/>
<rect x="-244" y="18" class="st2" width="2" height="2"/>
<rect x="-240" y="18" class="st2" width="2" height="2"/>
<rect x="-232" y="18" class="st2" width="2" height="2"/>
<rect x="-258" y="20" class="st2" width="2" height="2"/>
<rect x="-256" y="20" class="st2" width="2" height="2"/>
<rect x="-254" y="20" class="st2" width="2" height="2"/>
<rect x="-252" y="20" class="st2" width="2" height="2"/>
<rect x="-250" y="20" class="st2" width="2" height="2"/>
<rect x="-248" y="20" class="st2" width="2" height="2"/>
<rect x="-246" y="20" class="st2" width="2" height="2"/>
<rect x="-244" y="20" class="st2" width="2" height="2"/>
<rect x="-252" y="22" class="st2" width="2" height="2"/>
<rect x="-250" y="22" class="st2" width="2" height="2"/>
<rect x="-248" y="22" class="st2" width="2" height="2"/>
<rect x="-246" y="22" class="st2" width="2" height="2"/>
<rect x="-244" y="22" class="st2" width="2" height="2"/>
<rect x="-250" y="24" class="st2" width="2" height="2"/>
<rect x="-248" y="24" class="st2" width="2" height="2"/>
<rect x="-246" y="24" class="st2" width="2" height="2"/>
<rect x="-244" y="24" class="st2" width="2" height="2"/>
<rect x="-248" y="26" class="st2" width="2" height="2"/>
<rect x="-246" y="26" class="st2" width="2" height="2"/>
<rect x="-244" y="26" class="st2" width="2" height="2"/>
<rect x="-246" y="28" class="st2" width="2" height="2"/>
<rect x="-244" y="28" class="st2" width="2" height="2"/>
<rect x="-194" y="0" class="st0" width="2" height="2"/>
<rect x="-192" y="0" class="st1" width="2" height="2"/>
<rect x="-204" y="2" class="st1" width="2" height="2"/>
<rect x="-194" y="2" class="st1" width="2" height="2"/>
<rect x="-192" y="2" class="st1" width="2" height="2"/>
<rect x="-182" y="2" class="st1" width="2" height="2"/>
<rect x="-206" y="4" class="st0" width="2" height="2"/>
<rect x="-204" y="4" class="st1" width="2" height="2"/>
<rect x="-202" y="4" class="st1" width="2" height="2"/>
<rect x="-194" y="4" class="st1" width="2" height="2"/>
<rect x="-192" y="4" class="st1" width="2" height="2"/>
<rect x="-184" y="4" class="st1" width="2" height="2"/>
<rect x="-182" y="4" class="st1" width="2" height="2"/>
<rect x="-180" y="4" class="st0" width="2" height="2"/>
<rect x="-204" y="6" class="st1" width="2" height="2"/>
<rect x="-202" y="6" class="st1" width="2" height="2"/>
<rect x="-200" y="6" class="st1" width="2" height="2"/>
<rect x="-186" y="6" class="st1" width="2" height="2"/>
<rect x="-184" y="6" class="st1" width="2" height="2"/>
<rect x="-182" y="6" class="st1" width="2" height="2"/>
<rect x="-202" y="8" class="st1" width="2" height="2"/>
<rect x="-200" y="8" class="st1" width="2" height="2"/>
<rect x="-194" y="8" class="st1" width="2" height="2"/>
<rect x="-192" y="8" class="st1" width="2" height="2"/>
<rect x="-186" y="8" class="st1" width="2" height="2"/>
<rect x="-184" y="8" class="st1" width="2" height="2"/>
<rect x="-196" y="10" class="st1" width="2" height="2"/>
<rect x="-194" y="10" class="st1" width="2" height="2"/>
<rect x="-192" y="10" class="st1" width="2" height="2"/>
<rect x="-190" y="10" class="st1" width="2" height="2"/>
<rect x="-198" y="12" class="st0" width="2" height="2"/>
<rect x="-196" y="12" class="st1" width="2" height="2"/>
<rect x="-194" y="12" class="st1" width="2" height="2"/>
<rect x="-192" y="12" class="st1" width="2" height="2"/>
<rect x="-190" y="12" class="st1" width="2" height="2"/>
<rect x="-188" y="12" class="st1" width="2" height="2"/>
<rect x="-208" y="14" class="st1" width="2" height="2"/>
<rect x="-206" y="14" class="st1" width="2" height="2"/>
<rect x="-204" y="14" class="st1" width="2" height="2"/>
<rect x="-200" y="14" class="st0" width="2" height="2"/>
<rect x="-198" y="14" class="st1" width="2" height="2"/>
<rect x="-196" y="14" class="st1" width="2" height="2"/>
<rect x="-194" y="14" class="st1" width="2" height="2"/>
<rect x="-192" y="14" class="st1" width="2" height="2"/>
<rect x="-190" y="14" class="st1" width="2" height="2"/>
<rect x="-188" y="14" class="st1" width="2" height="2"/>
<rect x="-186" y="14" class="st1" width="2" height="2"/>
<rect x="-182" y="14" class="st1" width="2" height="2"/>
<rect x="-180" y="14" class="st1" width="2" height="2"/>
<rect x="-178" y="14" class="st1" width="2" height="2"/>
<rect x="-208" y="16" class="st0" width="2" height="2"/>
<rect x="-206" y="16" class="st0" width="2" height="2"/>
<rect x="-204" y="16" class="st0" width="2" height="2"/>
<rect x="-200" y="16" class="st0" width="2" height="2"/>
<rect x="-198" y="16" class="st1" width="2" height="2"/>
<rect x="-196" y="16" class="st1" width="2" height="2"/>
<rect x="-194" y="16" class="st1" width="2" height="2"/>
<rect x="-192" y="16" class="st1" width="2" height="2"/>
<rect x="-190" y="16" class="st1" width="2" height="2"/>
<rect x="-188" y="16" class="st1" width="2" height="2"/>
<rect x="-186" y="16" class="st1" width="2" height="2"/>
<rect x="-182" y="16" class="st1" width="2" height="2"/>
<rect x="-180" y="16" class="st1" width="2" height="2"/>
<rect x="-178" y="16" class="st0" width="2" height="2"/>
<rect x="-198" y="18" class="st0" width="2" height="2"/>
<rect x="-196" y="18" class="st1" width="2" height="2"/>
<rect x="-194" y="18" class="st1" width="2" height="2"/>
<rect x="-192" y="18" class="st1" width="2" height="2"/>
<rect x="-190" y="18" class="st1" width="2" height="2"/>
<rect x="-188" y="18" class="st1" width="2" height="2"/>
<rect x="-196" y="20" class="st0" width="2" height="2"/>
<rect x="-194" y="20" class="st1" width="2" height="2"/>
<rect x="-192" y="20" class="st1" width="2" height="2"/>
<rect x="-190" y="20" class="st1" width="2" height="2"/>
<rect x="-202" y="22" class="st1" width="2" height="2"/>
<rect x="-200" y="22" class="st1" width="2" height="2"/>
<rect x="-194" y="22" class="st0" width="2" height="2"/>
<rect x="-192" y="22" class="st0" width="2" height="2"/>
<rect x="-186" y="22" class="st1" width="2" height="2"/>
<rect x="-184" y="22" class="st1" width="2" height="2"/>
<rect x="-204" y="24" class="st1" width="2" height="2"/>
<rect x="-202" y="24" class="st1" width="2" height="2"/>
<rect x="-200" y="24" class="st0" width="2" height="2"/>
<rect x="-186" y="24" class="st1" width="2" height="2"/>
<rect x="-184" y="24" class="st1" width="2" height="2"/>
<rect x="-182" y="24" class="st1" width="2" height="2"/>
<rect x="-206" y="26" class="st1" width="2" height="2"/>
<rect x="-204" y="26" class="st1" width="2" height="2"/>
<rect x="-202" y="26" class="st0" width="2" height="2"/>
<rect x="-194" y="26" class="st1" width="2" height="2"/>
<rect x="-192" y="26" class="st1" width="2" height="2"/>
<rect x="-184" y="26" class="st1" width="2" height="2"/>
<rect x="-182" y="26" class="st1" width="2" height="2"/>
<rect x="-180" y="26" class="st1" width="2" height="2"/>
<rect x="-204" y="28" class="st0" width="2" height="2"/>
<rect x="-194" y="28" class="st1" width="2" height="2"/>
<rect x="-192" y="28" class="st0" width="2" height="2"/>
<rect x="-182" y="28" class="st0" width="2" height="2"/>
<rect x="-194" y="30" class="st0" width="2" height="2"/>
<rect x="-192" y="30" class="st0" width="2" height="2"/>
<rect x="-138" y="2" class="st3" width="2" height="2"/>
<rect x="-136" y="2" class="st4" width="2" height="2"/>
<rect x="-138" y="4" class="st3" width="2" height="2"/>
<rect x="-136" y="4" class="st4" width="2" height="2"/>
<rect x="-134" y="4" class="st4" width="2" height="2"/>
<rect x="-138" y="6" class="st3" width="2" height="2"/>
<rect x="-136" y="6" class="st4" width="2" height="2"/>
<rect x="-134" y="6" class="st5" width="2" height="2"/>
<rect x="-132" y="6" class="st4" width="2" height="2"/>
<rect x="-138" y="8" class="st6" width="2" height="2"/>
<rect x="-136" y="8" class="st4" width="2" height="2"/>
<rect x="-134" y="8" class="st5" width="2" height="2"/>
<rect x="-132" y="8" class="st5" width="2" height="2"/>
<rect x="-130" y="8" class="st4" width="2" height="2"/>
<rect x="-138" y="10" class="st7" width="2" height="2"/>
<rect x="-136" y="10" class="st4" width="2" height="2"/>
<rect x="-134" y="10" class="st5" width="2" height="2"/>
<rect x="-132" y="10" class="st5" width="2" height="2"/>
<rect x="-130" y="10" class="st4" width="2" height="2"/>
<rect x="-138" y="12" class="st4" width="2" height="2"/>
<rect x="-136" y="12" class="st5" width="2" height="2"/>
<rect x="-134" y="12" class="st5" width="2" height="2"/>
<rect x="-132" y="12" class="st5" width="2" height="2"/>
<rect x="-130" y="12" class="st4" width="2" height="2"/>
<rect x="-138" y="14" class="st4" width="2" height="2"/>
<rect x="-136" y="14" class="st5" width="2" height="2"/>
<rect x="-134" y="14" class="st5" width="2" height="2"/>
<rect x="-132" y="14" class="st5" width="2" height="2"/>
<rect x="-130" y="14" class="st4" width="2" height="2"/>
<rect x="-140" y="16" class="st4" width="2" height="2"/>
<rect x="-138" y="16" class="st5" width="2" height="2"/>
<rect x="-136" y="16" class="st5" width="2" height="2"/>
<rect x="-134" y="16" class="st5" width="2" height="2"/>
<rect x="-132" y="16" class="st5" width="2" height="2"/>
<rect x="-130" y="16" class="st4" width="2" height="2"/>
<rect x="-154" y="18" class="st3" width="2" height="2"/>
<rect x="-152" y="18" class="st3" width="2" height="2"/>
<rect x="-150" y="18" class="st3" width="2" height="2"/>
<rect x="-148" y="18" class="st3" width="2" height="2"/>
<rect x="-146" y="18" class="st3" width="2" height="2"/>
<rect x="-144" y="18" class="st4" width="2" height="2"/>
<rect x="-142" y="18" class="st4" width="2" height="2"/>
<rect x="-140" y="18" class="st5" width="2" height="2"/>
<rect x="-138" y="18" class="st5" width="2" height="2"/>
<rect x="-136" y="18" class="st5" width="2" height="2"/>
<rect x="-134" y="18" class="st5" width="2" height="2"/>
<rect x="-132" y="18" class="st4" width="2" height="2"/>
<rect x="-154" y="20" class="st4" width="2" height="2"/>
<rect x="-152" y="20" class="st4" width="2" height="2"/>
<rect x="-150" y="20" class="st4" width="2" height="2"/>
<rect x="-148" y="20" class="st4" width="2" height="2"/>
<rect x="-146" y="20" class="st4" width="2" height="2"/>
<rect x="-144" y="20" class="st5" width="2" height="2"/>
<rect x="-142" y="20" class="st5" width="2" height="2"/>
<rect x="-140" y="20" class="st5" width="2" height="2"/>
<rect x="-138" y="20" class="st5" width="2" height="2"/>
<rect x="-136" y="20" class="st5" width="2" height="2"/>
<rect x="-134" y="20" class="st5" width="2" height="2"/>
<rect x="-132" y="20" class="st4" width="2" height="2"/>
<rect x="-152" y="22" class="st4" width="2" height="2"/>
<rect x="-150" y="22" class="st5" width="2" height="2"/>
<rect x="-148" y="22" class="st5" width="2" height="2"/>
<rect x="-146" y="22" class="st5" width="2" height="2"/>
<rect x="-144" y="22" class="st5" width="2" height="2"/>
<rect x="-142" y="22" class="st5" width="2" height="2"/>
<rect x="-140" y="22" class="st5" width="2" height="2"/>
<rect x="-138" y="22" class="st5" width="2" height="2"/>
<rect x="-136" y="22" class="st5" width="2" height="2"/>
<rect x="-134" y="22" class="st4" width="2" height="2"/>
<rect x="-150" y="24" class="st4" width="2" height="2"/>
<rect x="-148" y="24" class="st5" width="2" height="2"/>
<rect x="-146" y="24" class="st5" width="2" height="2"/>
<rect x="-144" y="24" class="st5" width="2" height="2"/>
<rect x="-142" y="24" class="st5" width="2" height="2"/>
<rect x="-140" y="24" class="st5" width="2" height="2"/>
<rect x="-138" y="24" class="st4" width="2" height="2"/>
<rect x="-136" y="24" class="st4" width="2" height="2"/>
<rect x="-148" y="26" class="st4" width="2" height="2"/>
<rect x="-146" y="26" class="st4" width="2" height="2"/>
<rect x="-144" y="26" class="st4" width="2" height="2"/>
<rect x="-142" y="26" class="st4" width="2" height="2"/>
<rect x="-140" y="26" class="st4" width="2" height="2"/>
<rect x="-90" y="2" class="st0" width="2" height="2"/>
<rect x="-88" y="2" class="st0" width="2" height="2"/>
<rect x="-92" y="4" class="st0" width="2" height="2"/>
<rect x="-90" y="4" class="st1" width="2" height="2"/>
<rect x="-88" y="4" class="st1" width="2" height="2"/>
<rect x="-94" y="6" class="st0" width="2" height="2"/>
<rect x="-92" y="6" class="st1" width="2" height="2"/>
<rect x="-90" y="6" class="st1" width="2" height="2"/>
<rect x="-88" y="6" class="st1" width="2" height="2"/>
<rect x="-80" y="6" class="st2" width="2" height="2"/>
<rect x="-96" y="8" class="st0" width="2" height="2"/>
<rect x="-94" y="8" class="st1" width="2" height="2"/>
<rect x="-92" y="8" class="st1" width="2" height="2"/>
<rect x="-90" y="8" class="st2" width="2" height="2"/>
<rect x="-88" y="8" class="st2" width="2" height="2"/>
<rect x="-78" y="8" class="st2" width="2" height="2"/>
<rect x="-102" y="10" class="st0" width="2" height="2"/>
<rect x="-100" y="10" class="st0" width="2" height="2"/>
<rect x="-98" y="10" class="st1" width="2" height="2"/>
<rect x="-96" y="10" class="st1" width="2" height="2"/>
<rect x="-94" y="10" class="st1" width="2" height="2"/>
<rect x="-92" y="10" class="st2" width="2" height="2"/>
<rect x="-90" y="10" class="st2" width="2" height="2"/>
<rect x="-88" y="10" class="st2" width="2" height="2"/>
<rect x="-84" y="10" class="st2" width="2" height="2"/>
<rect x="-76" y="10" class="st2" width="2" height="2"/>
<rect x="-104" y="12" class="st1" width="2" height="2"/>
<rect x="-102" y="12" class="st1" width="2" height="2"/>
<rect x="-100" y="12" class="st1" width="2" height="2"/>
<rect x="-98" y="12" class="st2" width="2" height="2"/>
<rect x="-96" y="12" class="st2" width="2" height="2"/>
<rect x="-94" y="12" class="st2" width="2" height="2"/>
<rect x="-92" y="12" class="st2" width="2" height="2"/>
<rect x="-90" y="12" class="st2" width="2" height="2"/>
<rect x="-88" y="12" class="st2" width="2" height="2"/>
<rect x="-82" y="12" class="st2" width="2" height="2"/>
<rect x="-76" y="12" class="st2" width="2" height="2"/>
<rect x="-104" y="14" class="st1" width="2" height="2"/>
<rect x="-102" y="14" class="st2" width="2" height="2"/>
<rect x="-100" y="14" class="st2" width="2" height="2"/>
<rect x="-98" y="14" class="st2" width="2" height="2"/>
<rect x="-96" y="14" class="st2" width="2" height="2"/>
<rect x="-94" y="14" class="st2" width="2" height="2"/>
<rect x="-92" y="14" class="st2" width="2" height="2"/>
<rect x="-90" y="14" class="st2" width="2" height="2"/>
<rect x="-88" y="14" class="st2" width="2" height="2"/>
<rect x="-80" y="14" class="st2" width="2" height="2"/>
<rect x="-74" y="14" class="st2" width="2" height="2"/>
<rect x="-104" y="16" class="st2" width="2" height="2"/>
<rect x="-102" y="16" class="st2" width="2" height="2"/>
<rect x="-100" y="16" class="st2" width="2" height="2"/>
<rect x="-98" y="16" class="st2" width="2" height="2"/>
<rect x="-96" y="16" class="st2" width="2" height="2"/>
<rect x="-94" y="16" class="st2" width="2" height="2"/>
<rect x="-92" y="16" class="st2" width="2" height="2"/>
<rect x="-90" y="16" class="st2" width="2" height="2"/>
<rect x="-88" y="16" class="st2" width="2" height="2"/>
<rect x="-80" y="16" class="st2" width="2" height="2"/>
<rect x="-74" y="16" class="st2" width="2" height="2"/>
<rect x="-104" y="18" class="st2" width="2" height="2"/>
<rect x="-102" y="18" class="st2" width="2" height="2"/>
<rect x="-100" y="18" class="st2" width="2" height="2"/>
<rect x="-98" y="18" class="st2" width="2" height="2"/>
<rect x="-96" y="18" class="st2" width="2" height="2"/>
<rect x="-94" y="18" class="st2" width="2" height="2"/>
<rect x="-92" y="18" class="st2" width="2" height="2"/>
<rect x="-90" y="18" class="st2" width="2" height="2"/>
<rect x="-88" y="18" class="st2" width="2" height="2"/>
<rect x="-82" y="18" class="st2" width="2" height="2"/>
<rect x="-76" y="18" class="st2" width="2" height="2"/>
<rect x="-102" y="20" class="st2" width="2" height="2"/>
<rect x="-100" y="20" class="st2" width="2" height="2"/>
<rect x="-98" y="20" class="st2" width="2" height="2"/>
<rect x="-96" y="20" class="st2" width="2" height="2"/>
<rect x="-94" y="20" class="st2" width="2" height="2"/>
<rect x="-92" y="20" class="st2" width="2" height="2"/>
<rect x="-90" y="20" class="st2" width="2" height="2"/>
<rect x="-88" y="20" class="st2" width="2" height="2"/>
<rect x="-84" y="20" class="st2" width="2" height="2"/>
<rect x="-76" y="20" class="st2" width="2" height="2"/>
<rect x="-96" y="22" class="st2" width="2" height="2"/>
<rect x="-94" y="22" class="st2" width="2" height="2"/>
<rect x="-92" y="22" class="st2" width="2" height="2"/>
<rect x="-90" y="22" class="st2" width="2" height="2"/>
<rect x="-88" y="22" class="st2" width="2" height="2"/>
<rect x="-78" y="22" class="st2" width="2" height="2"/>
<rect x="-94" y="24" class="st2" width="2" height="2"/>
<rect x="-92" y="24" class="st2" width="2" height="2"/>
<rect x="-90" y="24" class="st2" width="2" height="2"/>
<rect x="-88" y="24" class="st2" width="2" height="2"/>
<rect x="-80" y="24" class="st2" width="2" height="2"/>
<rect x="-92" y="26" class="st2" width="2" height="2"/>
<rect x="-90" y="26" class="st2" width="2" height="2"/>
<rect x="-88" y="26" class="st2" width="2" height="2"/>
<rect x="-90" y="28" class="st2" width="2" height="2"/>
<rect x="-88" y="28" class="st2" width="2" height="2"/>
<rect x="-40" y="4" class="st4" width="2" height="2"/>
<rect x="-38" y="4" class="st4" width="2" height="2"/>
<rect x="-36" y="4" class="st4" width="2" height="2"/>
<rect x="-34" y="4" class="st4" width="2" height="2"/>
<rect x="-26" y="4" class="st4" width="2" height="2"/>
<rect x="-42" y="6" class="st1" width="2" height="2"/>
<rect x="-40" y="6" class="st4" width="2" height="2"/>
<rect x="-38" y="6" class="st4" width="2" height="2"/>
<rect x="-36" y="6" class="st4" width="2" height="2"/>
<rect x="-34" y="6" class="st4" width="2" height="2"/>
<rect x="-32" y="6" class="st4" width="2" height="2"/>
<rect x="-30" y="6" class="st4" width="2" height="2"/>
<rect x="-26" y="6" class="st4" width="2" height="2"/>
<rect x="-44" y="8" class="st4" width="2" height="2"/>
<rect x="-42" y="8" class="st4" width="2" height="2"/>
<rect x="-32" y="8" class="st1" width="2" height="2"/>
<rect x="-30" y="8" class="st4" width="2" height="2"/>
<rect x="-28" y="8" class="st4" width="2" height="2"/>
<rect x="-26" y="8" class="st4" width="2" height="2"/>
<rect x="-46" y="10" class="st4" width="2" height="2"/>
<rect x="-44" y="10" class="st1" width="2" height="2"/>
<rect x="-30" y="10" class="st1" width="2" height="2"/>
<rect x="-28" y="10" class="st4" width="2" height="2"/>
<rect x="-26" y="10" class="st4" width="2" height="2"/>
<rect x="-48" y="12" class="st8" width="2" height="2"/>
<rect x="-46" y="12" class="st1" width="2" height="2"/>
<rect x="-34" y="12" class="st4" width="2" height="2"/>
<rect x="-32" y="12" class="st4" width="2" height="2"/>
<rect x="-30" y="12" class="st4" width="2" height="2"/>
<rect x="-28" y="12" class="st4" width="2" height="2"/>
<rect x="-26" y="12" class="st4" width="2" height="2"/>
<rect x="-48" y="14" class="st8" width="2" height="2"/>
<rect x="-46" y="14" class="st1" width="2" height="2"/>
<rect x="-48" y="16" class="st8" width="2" height="2"/>
<rect x="-46" y="16" class="st1" width="2" height="2"/>
<rect x="-26" y="16" class="st1" width="2" height="2"/>
<rect x="-48" y="18" class="st8" width="2" height="2"/>
<rect x="-46" y="18" class="st1" width="2" height="2"/>
<rect x="-26" y="18" class="st1" width="2" height="2"/>
<rect x="-48" y="20" class="st8" width="2" height="2"/>
<rect x="-46" y="20" class="st1" width="2" height="2"/>
<rect x="-28" y="20" class="st1" width="2" height="2"/>
<rect x="-26" y="20" class="st1" width="2" height="2"/>
<rect x="-46" y="22" class="st8" width="2" height="2"/>
<rect x="-44" y="22" class="st1" width="2" height="2"/>
<rect x="-42" y="22" class="st1" width="2" height="2"/>
<rect x="-30" y="22" class="st1" width="2" height="2"/>
<rect x="-28" y="22" class="st1" width="2" height="2"/>
<rect x="-44" y="24" class="st8" width="2" height="2"/>
<rect x="-42" y="24" class="st8" width="2" height="2"/>
<rect x="-40" y="24" class="st1" width="2" height="2"/>
<rect x="-38" y="24" class="st1" width="2" height="2"/>
<rect x="-36" y="24" class="st1" width="2" height="2"/>
<rect x="-34" y="24" class="st1" width="2" height="2"/>
<rect x="-32" y="24" class="st1" width="2" height="2"/>
<rect x="-30" y="24" class="st1" width="2" height="2"/>
<rect x="-40" y="26" class="st8" width="2" height="2"/>
<rect x="-38" y="26" class="st8" width="2" height="2"/>
<rect x="-36" y="26" class="st8" width="2" height="2"/>
<rect x="-34" y="26" class="st8" width="2" height="2"/>
<rect x="-32" y="26" class="st8" width="2" height="2"/>
<rect x="14" y="2" class="st2" width="2" height="2"/>
<rect x="16" y="2" class="st2" width="2" height="2"/>
<rect x="4" y="4" class="st2" width="2" height="2"/>
<rect x="6" y="4" class="st2" width="2" height="2"/>
<rect x="12" y="4" class="st2" width="2" height="2"/>
<rect x="14" y="4" class="st2" width="2" height="2"/>
<rect x="16" y="4" class="st2" width="2" height="2"/>
<rect x="18" y="4" class="st2" width="2" height="2"/>
<rect x="24" y="4" class="st2" width="2" height="2"/>
<rect x="26" y="4" class="st2" width="2" height="2"/>
<rect x="4" y="6" class="st2" width="2" height="2"/>
<rect x="6" y="6" class="st2" width="2" height="2"/>
<rect x="8" y="6" class="st2" width="2" height="2"/>
<rect x="10" y="6" class="st2" width="2" height="2"/>
<rect x="12" y="6" class="st2" width="2" height="2"/>
<rect x="14" y="6" class="st2" width="2" height="2"/>
<rect x="16" y="6" class="st2" width="2" height="2"/>
<rect x="18" y="6" class="st2" width="2" height="2"/>
<rect x="20" y="6" class="st2" width="2" height="2"/>
<rect x="22" y="6" class="st2" width="2" height="2"/>
<rect x="24" y="6" class="st2" width="2" height="2"/>
<rect x="26" y="6" class="st2" width="2" height="2"/>
<rect x="6" y="8" class="st2" width="2" height="2"/>
<rect x="8" y="8" class="st2" width="2" height="2"/>
<rect x="10" y="8" class="st2" width="2" height="2"/>
<rect x="12" y="8" class="st2" width="2" height="2"/>
<rect x="18" y="8" class="st2" width="2" height="2"/>
<rect x="20" y="8" class="st2" width="2" height="2"/>
<rect x="22" y="8" class="st2" width="2" height="2"/>
<rect x="24" y="8" class="st2" width="2" height="2"/>
<rect x="6" y="10" class="st2" width="2" height="2"/>
<rect x="8" y="10" class="st2" width="2" height="2"/>
<rect x="10" y="10" class="st2" width="2" height="2"/>
<rect x="20" y="10" class="st2" width="2" height="2"/>
<rect x="22" y="10" class="st2" width="2" height="2"/>
<rect x="24" y="10" class="st2" width="2" height="2"/>
<rect x="4" y="12" class="st2" width="2" height="2"/>
<rect x="6" y="12" class="st2" width="2" height="2"/>
<rect x="8" y="12" class="st2" width="2" height="2"/>
<rect x="22" y="12" class="st2" width="2" height="2"/>
<rect x="24" y="12" class="st2" width="2" height="2"/>
<rect x="26" y="12" class="st2" width="2" height="2"/>
<rect x="2" y="14" class="st2" width="2" height="2"/>
<rect x="4" y="14" class="st2" width="2" height="2"/>
<rect x="6" y="14" class="st2" width="2" height="2"/>
<rect x="24" y="14" class="st2" width="2" height="2"/>
<rect x="26" y="14" class="st2" width="2" height="2"/>
<rect x="28" y="14" class="st2" width="2" height="2"/>
<rect x="2" y="16" class="st2" width="2" height="2"/>
<rect x="4" y="16" class="st2" width="2" height="2"/>
<rect x="6" y="16" class="st2" width="2" height="2"/>
<rect x="24" y="16" class="st2" width="2" height="2"/>
<rect x="26" y="16" class="st2" width="2" height="2"/>
<rect x="28" y="16" class="st2" width="2" height="2"/>
<rect x="4" y="18" class="st2" width="2" height="2"/>
<rect x="6" y="18" class="st2" width="2" height="2"/>
<rect x="8" y="18" class="st2" width="2" height="2"/>
<rect x="22" y="18" class="st2" width="2" height="2"/>
<rect x="24" y="18" class="st2" width="2" height="2"/>
<rect x="26" y="18" class="st2" width="2" height="2"/>
<rect x="6" y="20" class="st2" width="2" height="2"/>
<rect x="8" y="20" class="st2" width="2" height="2"/>
<rect x="10" y="20" class="st2" width="2" height="2"/>
<rect x="20" y="20" class="st2" width="2" height="2"/>
<rect x="22" y="20" class="st2" width="2" height="2"/>
<rect x="24" y="20" class="st2" width="2" height="2"/>
<rect x="6" y="22" class="st2" width="2" height="2"/>
<rect x="8" y="22" class="st2" width="2" height="2"/>
<rect x="10" y="22" class="st2" width="2" height="2"/>
<rect x="12" y="22" class="st2" width="2" height="2"/>
<rect x="18" y="22" class="st2" width="2" height="2"/>
<rect x="20" y="22" class="st2" width="2" height="2"/>
<rect x="22" y="22" class="st2" width="2" height="2"/>
<rect x="24" y="22" class="st2" width="2" height="2"/>
<rect x="4" y="24" class="st2" width="2" height="2"/>
<rect x="6" y="24" class="st2" width="2" height="2"/>
<rect x="8" y="24" class="st2" width="2" height="2"/>
<rect x="10" y="24" class="st2" width="2" height="2"/>
<rect x="12" y="24" class="st2" width="2" height="2"/>
<rect x="14" y="24" class="st2" width="2" height="2"/>
<rect x="16" y="24" class="st2" width="2" height="2"/>
<rect x="18" y="24" class="st2" width="2" height="2"/>
<rect x="20" y="24" class="st2" width="2" height="2"/>
<rect x="22" y="24" class="st2" width="2" height="2"/>
<rect x="24" y="24" class="st2" width="2" height="2"/>
<rect x="26" y="24" class="st2" width="2" height="2"/>
<rect x="4" y="26" class="st2" width="2" height="2"/>
<rect x="6" y="26" class="st2" width="2" height="2"/>
<rect x="12" y="26" class="st2" width="2" height="2"/>
<rect x="14" y="26" class="st2" width="2" height="2"/>
<rect x="16" y="26" class="st2" width="2" height="2"/>
<rect x="18" y="26" class="st2" width="2" height="2"/>
<rect x="24" y="26" class="st2" width="2" height="2"/>
<rect x="26" y="26" class="st2" width="2" height="2"/>
<rect x="14" y="28" class="st2" width="2" height="2"/>
<rect x="16" y="28" class="st2" width="2" height="2"/>
<rect x="64" y="4" class="st8" width="2" height="2"/>
<rect x="66" y="4" class="st8" width="2" height="2"/>
<rect x="68" y="4" class="st8" width="2" height="2"/>
<rect x="70" y="4" class="st8" width="2" height="2"/>
<rect x="60" y="6" class="st8" width="2" height="2"/>
<rect x="62" y="6" class="st8" width="2" height="2"/>
<rect x="64" y="6" class="st4" width="2" height="2"/>
<rect x="66" y="6" class="st4" width="2" height="2"/>
<rect x="68" y="6" class="st4" width="2" height="2"/>
<rect x="70" y="6" class="st4" width="2" height="2"/>
<rect x="72" y="6" class="st8" width="2" height="2"/>
<rect x="74" y="6" class="st8" width="2" height="2"/>
<rect x="58" y="8" class="st8" width="2" height="2"/>
<rect x="60" y="8" class="st4" width="2" height="2"/>
<rect x="62" y="8" class="st4" width="2" height="2"/>
<rect x="64" y="8" class="st8" width="2" height="2"/>
<rect x="66" y="8" class="st8" width="2" height="2"/>
<rect x="68" y="8" class="st8" width="2" height="2"/>
<rect x="70" y="8" class="st8" width="2" height="2"/>
<rect x="72" y="8" class="st4" width="2" height="2"/>
<rect x="74" y="8" class="st4" width="2" height="2"/>
<rect x="76" y="8" class="st8" width="2" height="2"/>
<rect x="56" y="10" class="st8" width="2" height="2"/>
<rect x="58" y="10" class="st4" width="2" height="2"/>
<rect x="60" y="10" class="st4" width="2" height="2"/>
<rect x="62" y="10" class="st8" width="2" height="2"/>
<rect x="64" y="10" class="st9" width="2" height="2"/>
<rect x="66" y="10" class="st9" width="2" height="2"/>
<rect x="68" y="10" class="st9" width="2" height="2"/>
<rect x="70" y="10" class="st9" width="2" height="2"/>
<rect x="72" y="10" class="st8" width="2" height="2"/>
<rect x="74" y="10" class="st4" width="2" height="2"/>
<rect x="76" y="10" class="st4" width="2" height="2"/>
<rect x="78" y="10" class="st8" width="2" height="2"/>
<rect x="54" y="12" class="st8" width="2" height="2"/>
<rect x="56" y="12" class="st4" width="2" height="2"/>
<rect x="58" y="12" class="st4" width="2" height="2"/>
<rect x="60" y="12" class="st8" width="2" height="2"/>
<rect x="62" y="12" class="st9" width="2" height="2"/>
<rect x="64" y="12" class="st9" width="2" height="2"/>
<rect x="66" y="12" class="st9" width="2" height="2"/>
<rect x="68" y="12" class="st8" width="2" height="2"/>
<rect x="70" y="12" class="st4" width="2" height="2"/>
<rect x="72" y="12" class="st9" width="2" height="2"/>
<rect x="74" y="12" class="st8" width="2" height="2"/>
<rect x="76" y="12" class="st4" width="2" height="2"/>
<rect x="78" y="12" class="st4" width="2" height="2"/>
<rect x="80" y="12" class="st8" width="2" height="2"/>
<rect x="52" y="14" class="st8" width="2" height="2"/>
<rect x="54" y="14" class="st4" width="2" height="2"/>
<rect x="56" y="14" class="st4" width="2" height="2"/>
<rect x="58" y="14" class="st4" width="2" height="2"/>
<rect x="60" y="14" class="st8" width="2" height="2"/>
<rect x="62" y="14" class="st9" width="2" height="2"/>
<rect x="64" y="14" class="st9" width="2" height="2"/>
<rect x="66" y="14" class="st9" width="2" height="2"/>
<rect x="68" y="14" class="st9" width="2" height="2"/>
<rect x="70" y="14" class="st8" width="2" height="2"/>
<rect x="72" y="14" class="st9" width="2" height="2"/>
<rect x="74" y="14" class="st8" width="2" height="2"/>
<rect x="76" y="14" class="st4" width="2" height="2"/>
<rect x="78" y="14" class="st4" width="2" height="2"/>
<rect x="80" y="14" class="st4" width="2" height="2"/>
<rect x="82" y="14" class="st8" width="2" height="2"/>
<rect x="54" y="16" class="st8" width="2" height="2"/>
<rect x="56" y="16" class="st4" width="2" height="2"/>
<rect x="58" y="16" class="st4" width="2" height="2"/>
<rect x="60" y="16" class="st8" width="2" height="2"/>
<rect x="62" y="16" class="st9" width="2" height="2"/>
<rect x="64" y="16" class="st9" width="2" height="2"/>
<rect x="66" y="16" class="st9" width="2" height="2"/>
<rect x="68" y="16" class="st9" width="2" height="2"/>
<rect x="70" y="16" class="st9" width="2" height="2"/>
<rect x="72" y="16" class="st9" width="2" height="2"/>
<rect x="74" y="16" class="st8" width="2" height="2"/>
<rect x="76" y="16" class="st4" width="2" height="2"/>
<rect x="78" y="16" class="st4" width="2" height="2"/>
<rect x="80" y="16" class="st8" width="2" height="2"/>
<rect x="56" y="18" class="st8" width="2" height="2"/>
<rect x="58" y="18" class="st4" width="2" height="2"/>
<rect x="60" y="18" class="st4" width="2" height="2"/>
<rect x="62" y="18" class="st8" width="2" height="2"/>
<rect x="64" y="18" class="st9" width="2" height="2"/>
<rect x="66" y="18" class="st9" width="2" height="2"/>
<rect x="68" y="18" class="st9" width="2" height="2"/>
<rect x="70" y="18" class="st9" width="2" height="2"/>
<rect x="72" y="18" class="st8" width="2" height="2"/>
<rect x="74" y="18" class="st4" width="2" height="2"/>
<rect x="76" y="18" class="st4" width="2" height="2"/>
<rect x="78" y="18" class="st8" width="2" height="2"/>
<rect x="58" y="20" class="st8" width="2" height="2"/>
<rect x="60" y="20" class="st4" width="2" height="2"/>
<rect x="62" y="20" class="st4" width="2" height="2"/>
<rect x="64" y="20" class="st8" width="2" height="2"/>
<rect x="66" y="20" class="st8" width="2" height="2"/>
<rect x="68" y="20" class="st8" width="2" height="2"/>
<rect x="70" y="20" class="st8" width="2" height="2"/>
<rect x="72" y="20" class="st4" width="2" height="2"/>
<rect x="74" y="20" class="st4" width="2" height="2"/>
<rect x="76" y="20" class="st8" width="2" height="2"/>
<rect x="60" y="22" class="st8" width="2" height="2"/>
<rect x="62" y="22" class="st8" width="2" height="2"/>
<rect x="64" y="22" class="st4" width="2" height="2"/>
<rect x="66" y="22" class="st4" width="2" height="2"/>
<rect x="68" y="22" class="st4" width="2" height="2"/>
<rect x="70" y="22" class="st4" width="2" height="2"/>
<rect x="72" y="22" class="st8" width="2" height="2"/>
<rect x="74" y="22" class="st8" width="2" height="2"/>
<rect x="64" y="24" class="st8" width="2" height="2"/>
<rect x="66" y="24" class="st8" width="2" height="2"/>
<rect x="68" y="24" class="st8" width="2" height="2"/>
<rect x="70" y="24" class="st8" width="2" height="2"/>
<rect x="104" y="14" class="st8" width="2" height="2"/>
<rect x="106" y="14" class="st8" width="2" height="2"/>
<rect x="108" y="14" class="st8" width="2" height="2"/>
<rect x="130" y="14" class="st8" width="2" height="2"/>
<rect x="132" y="14" class="st8" width="2" height="2"/>
<rect x="134" y="14" class="st8" width="2" height="2"/>
<rect x="106" y="16" class="st8" width="2" height="2"/>
<rect x="108" y="16" class="st9" width="2" height="2"/>
<rect x="110" y="16" class="st8" width="2" height="2"/>
<rect x="128" y="16" class="st8" width="2" height="2"/>
<rect x="130" y="16" class="st9" width="2" height="2"/>
<rect x="132" y="16" class="st8" width="2" height="2"/>
<rect x="108" y="18" class="st8" width="2" height="2"/>
<rect x="110" y="18" class="st9" width="2" height="2"/>
<rect x="112" y="18" class="st8" width="2" height="2"/>
<rect x="114" y="18" class="st8" width="2" height="2"/>
<rect x="124" y="18" class="st8" width="2" height="2"/>
<rect x="126" y="18" class="st8" width="2" height="2"/>
<rect x="128" y="18" class="st9" width="2" height="2"/>
<rect x="130" y="18" class="st8" width="2" height="2"/>
<rect x="110" y="20" class="st8" width="2" height="2"/>
<rect x="112" y="20" class="st9" width="2" height="2"/>
<rect x="114" y="20" class="st9" width="2" height="2"/>
<rect x="116" y="20" class="st8" width="2" height="2"/>
<rect x="118" y="20" class="st8" width="2" height="2"/>
<rect x="120" y="20" class="st8" width="2" height="2"/>
<rect x="122" y="20" class="st8" width="2" height="2"/>
<rect x="124" y="20" class="st9" width="2" height="2"/>
<rect x="126" y="20" class="st9" width="2" height="2"/>
<rect x="128" y="20" class="st8" width="2" height="2"/>
<rect x="112" y="22" class="st8" width="2" height="2"/>
<rect x="114" y="22" class="st8" width="2" height="2"/>
<rect x="116" y="22" class="st9" width="2" height="2"/>
<rect x="118" y="22" class="st9" width="2" height="2"/>
<rect x="120" y="22" class="st9" width="2" height="2"/>
<rect x="122" y="22" class="st9" width="2" height="2"/>
<rect x="124" y="22" class="st8" width="2" height="2"/>
<rect x="126" y="22" class="st8" width="2" height="2"/>
<rect x="116" y="24" class="st8" width="2" height="2"/>
<rect x="118" y="24" class="st8" width="2" height="2"/>
<rect x="120" y="24" class="st8" width="2" height="2"/>
<rect x="122" y="24" class="st8" width="2" height="2"/>
</svg>
