<?xml version="1.0" encoding="utf-8"?>
<!-- Generator: Adobe Illustrator 26.0.2, SVG Export Plug-In . SVG Version: 6.00 Build 0)  -->
<svg version="1.1" id="Слой_1" shape-rendering="crispEdges"
	 xmlns="http://www.w3.org/2000/svg" xmlns:xlink="http://www.w3.org/1999/xlink" x="0px" y="0px" viewBox="0 0 32 32"
	 style="enable-background:new 0 0 32 32;" xml:space="preserve">
<style type="text/css">
	.st0{fill:#FFFFFF;}
	.st1{fill:#F5F8D2;}
	.st2{fill:#E2E5BF;}
	.st3{fill:#ADB376;}
	.st4{fill:#5E6B56;}
</style>
<rect x="-90" y="2" class="st0" width="2" height="2"/>
<rect x="-88" y="2" class="st0" width="2" height="2"/>
<rect x="-92" y="4" class="st0" width="2" height="2"/>
<rect x="-90" y="4" class="st1" width="2" height="2"/>
<rect x="-88" y="4" class="st1" width="2" height="2"/>
<rect x="-94" y="6" class="st0" width="2" height="2"/>
<rect x="-92" y="6" class="st1" width="2" height="2"/>
<rect x="-90" y="6" class="st1" width="2" height="2"/>
<rect x="-88" y="6" class="st1" width="2" height="2"/>
<rect x="-80" y="6" class="st2" width="2" height="2"/>
<rect x="-96" y="8" class="st0" width="2" height="2"/>
<rect x="-94" y="8" class="st1" width="2" height="2"/>
<rect x="-92" y="8" class="st1" width="2" height="2"/>
<rect x="-90" y="8" class="st2" width="2" height="2"/>
<rect x="-88" y="8" class="st2" width="2" height="2"/>
<rect x="-78" y="8" class="st2" width="2" height="2"/>
<rect x="-102" y="10" class="st0" width="2" height="2"/>
<rect x="-100" y="10" class="st0" width="2" height="2"/>
<rect x="-98" y="10" class="st1" width="2" height="2"/>
<rect x="-96" y="10" class="st1" width="2" height="2"/>
<rect x="-94" y="10" class="st1" width="2" height="2"/>
<rect x="-92" y="10" class="st2" width="2" height="2"/>
<rect x="-90" y="10" class="st2" width="2" height="2"/>
<rect x="-88" y="10" class="st2" width="2" height="2"/>
<rect x="-84" y="10" class="st2" width="2" height="2"/>
<rect x="-76" y="10" class="st2" width="2" height="2"/>
<rect x="-104" y="12" class="st1" width="2" height="2"/>
<rect x="-102" y="12" class="st1" width="2" height="2"/>
<rect x="-100" y="12" class="st1" width="2" height="2"/>
<rect x="-98" y="12" class="st2" width="2" height="2"/>
<rect x="-96" y="12" class="st2" width="2" height="2"/>
<rect x="-94" y="12" class="st2" width="2" height="2"/>
<rect x="-92" y="12" class="st2" width="2" height="2"/>
<rect x="-90" y="12" class="st2" width="2" height="2"/>
<rect x="-88" y="12" class="st2" width="2" height="2"/>
<rect x="-82" y="12" class="st2" width="2" height="2"/>
<rect x="-76" y="12" class="st2" width="2" height="2"/>
<rect x="-104" y="14" class="st1" width="2" height="2"/>
<rect x="-102" y="14" class="st2" width="2" height="2"/>
<rect x="-100" y="14" class="st2" width="2" height="2"/>
<rect x="-98" y="14" class="st2" width="2" height="2"/>
<rect x="-96" y="14" class="st2" width="2" height="2"/>
<rect x="-94" y="14" class="st2" width="2" height="2"/>
<rect x="-92" y="14" class="st2" width="2" height="2"/>
<rect x="-90" y="14" class="st2" width="2" height="2"/>
<rect x="-88" y="14" class="st2" width="2" height="2"/>
<rect x="-80" y="14" class="st2" width="2" height="2"/>
<rect x="-74" y="14" class="st2" width="2" height="2"/>
<rect x="-104" y="16" class="st2" width="2" height="2"/>
<rect x="-102" y="16" class="st2" width="2" height="2"/>
<rect x="-100" y="16" class="st2" width="2" height="2"/>
<rect x="-98" y="16" class="st2" width="2" height="2"/>
<rect x="-96" y="16" class="st2" width="2" height="2"/>
<rect x="-94" y="16" class="st2" width="2" height="2"/>
<rect x="-92" y="16" class="st2" width="2" height="2"/>
<rect x="-90" y="16" class="st2" width="2" height="2"/>
<rect x="-88" y="16" class="st2" width="2" height="2"/>
<rect x="-80" y="16" class="st2" width="2" height="2"/>
<rect x="-74" y="16" class="st2" width="2" height="2"/>
<rect x="-104" y="18" class="st2" width="2" height="2"/>
<rect x="-102" y="18" class="st2" width="2" height="2"/>
<rect x="-100" y="18" class="st2" width="2" height="2"/>
<rect x="-98" y="18" class="st2" width="2" height="2"/>
<rect x="-96" y="18" class="st2" width="2" height="2"/>
<rect x="-94" y="18" class="st2" width="2" height="2"/>
<rect x="-92" y="18" class="st2" width="2" height="2"/>
<rect x="-90" y="18" class="st2" width="2" height="2"/>
<rect x="-88" y="18" class="st2" width="2" height="2"/>
<rect x="-82" y="18" class="st2" width="2" height="2"/>
<rect x="-76" y="18" class="st2" width="2" height="2"/>
<rect x="-102" y="20" class="st2" width="2" height="2"/>
<rect x="-100" y="20" class="st2" width="2" height="2"/>
<rect x="-98" y="20" class="st2" width="2" height="2"/>
<rect x="-96" y="20" class="st2" width="2" height="2"/>
<rect x="-94" y="20" class="st2" width="2" height="2"/>
<rect x="-92" y="20" class="st2" width="2" height="2"/>
<rect x="-90" y="20" class="st2" width="2" height="2"/>
<rect x="-88" y="20" class="st2" width="2" height="2"/>
<rect x="-84" y="20" class="st2" width="2" height="2"/>
<rect x="-76" y="20" class="st2" width="2" height="2"/>
<rect x="-96" y="22" class="st2" width="2" height="2"/>
<rect x="-94" y="22" class="st2" width="2" height="2"/>
<rect x="-92" y="22" class="st2" width="2" height="2"/>
<rect x="-90" y="22" class="st2" width="2" height="2"/>
<rect x="-88" y="22" class="st2" width="2" height="2"/>
<rect x="-78" y="22" class="st2" width="2" height="2"/>
<rect x="-94" y="24" class="st2" width="2" height="2"/>
<rect x="-92" y="24" class="st2" width="2" height="2"/>
<rect x="-90" y="24" class="st2" width="2" height="2"/>
<rect x="-88" y="24" class="st2" width="2" height="2"/>
<rect x="-80" y="24" class="st2" width="2" height="2"/>
<rect x="-92" y="26" class="st2" width="2" height="2"/>
<rect x="-90" y="26" class="st2" width="2" height="2"/>
<rect x="-88" y="26" class="st2" width="2" height="2"/>
<rect x="-90" y="28" class="st2" width="2" height="2"/>
<rect x="-88" y="28" class="st2" width="2" height="2"/>
<rect x="-40" y="4" class="st3" width="2" height="2"/>
<rect x="-38" y="4" class="st3" width="2" height="2"/>
<rect x="-36" y="4" class="st3" width="2" height="2"/>
<rect x="-34" y="4" class="st3" width="2" height="2"/>
<rect x="-26" y="4" class="st3" width="2" height="2"/>
<rect x="-42" y="6" class="st4" width="2" height="2"/>
<rect x="-40" y="6" class="st4" width="2" height="2"/>
<rect x="-38" y="6" class="st4" width="2" height="2"/>
<rect x="-36" y="6" class="st4" width="2" height="2"/>
<rect x="-34" y="6" class="st4" width="2" height="2"/>
<rect x="-32" y="6" class="st3" width="2" height="2"/>
<rect x="-30" y="6" class="st3" width="2" height="2"/>
<rect x="-26" y="6" class="st3" width="2" height="2"/>
<rect x="-44" y="8" class="st4" width="2" height="2"/>
<rect x="-42" y="8" class="st4" width="2" height="2"/>
<rect x="-32" y="8" class="st4" width="2" height="2"/>
<rect x="-30" y="8" class="st4" width="2" height="2"/>
<rect x="-28" y="8" class="st3" width="2" height="2"/>
<rect x="-26" y="8" class="st3" width="2" height="2"/>
<rect x="-46" y="10" class="st4" width="2" height="2"/>
<rect x="-44" y="10" class="st4" width="2" height="2"/>
<rect x="-30" y="10" class="st4" width="2" height="2"/>
<rect x="-28" y="10" class="st4" width="2" height="2"/>
<rect x="-26" y="10" class="st3" width="2" height="2"/>
<rect x="-48" y="12" class="st4" width="2" height="2"/>
<rect x="-46" y="12" class="st4" width="2" height="2"/>
<rect x="-34" y="12" class="st4" width="2" height="2"/>
<rect x="-32" y="12" class="st4" width="2" height="2"/>
<rect x="-30" y="12" class="st4" width="2" height="2"/>
<rect x="-28" y="12" class="st4" width="2" height="2"/>
<rect x="-26" y="12" class="st4" width="2" height="2"/>
<rect x="-48" y="14" class="st4" width="2" height="2"/>
<rect x="-46" y="14" class="st4" width="2" height="2"/>
<rect x="-48" y="16" class="st4" width="2" height="2"/>
<rect x="-46" y="16" class="st3" width="2" height="2"/>
<rect x="-26" y="16" class="st3" width="2" height="2"/>
<rect x="-48" y="18" class="st4" width="2" height="2"/>
<rect x="-46" y="18" class="st3" width="2" height="2"/>
<rect x="-26" y="18" class="st3" width="2" height="2"/>
<rect x="-48" y="20" class="st4" width="2" height="2"/>
<rect x="-46" y="20" class="st3" width="2" height="2"/>
<rect x="-28" y="20" class="st3" width="2" height="2"/>
<rect x="-26" y="20" class="st4" width="2" height="2"/>
<rect x="-46" y="22" class="st4" width="2" height="2"/>
<rect x="-44" y="22" class="st3" width="2" height="2"/>
<rect x="-42" y="22" class="st3" width="2" height="2"/>
<rect x="-30" y="22" class="st3" width="2" height="2"/>
<rect x="-28" y="22" class="st3" width="2" height="2"/>
<rect x="-44" y="24" class="st4" width="2" height="2"/>
<rect x="-42" y="24" class="st4" width="2" height="2"/>
<rect x="-40" y="24" class="st3" width="2" height="2"/>
<rect x="-38" y="24" class="st3" width="2" height="2"/>
<rect x="-36" y="24" class="st3" width="2" height="2"/>
<rect x="-34" y="24" class="st3" width="2" height="2"/>
<rect x="-32" y="24" class="st3" width="2" height="2"/>
<rect x="-30" y="24" class="st3" width="2" height="2"/>
<rect x="-40" y="26" class="st4" width="2" height="2"/>
<rect x="-38" y="26" class="st4" width="2" height="2"/>
<rect x="-36" y="26" class="st4" width="2" height="2"/>
<rect x="-34" y="26" class="st4" width="2" height="2"/>
<rect x="-32" y="26" class="st4" width="2" height="2"/>
<rect x="14" y="2" class="st0" width="2" height="2"/>
<rect x="16" y="2" class="st0" width="2" height="2"/>
<rect x="12" y="4" class="st0" width="2" height="2"/>
<rect x="14" y="4" class="st1" width="2" height="2"/>
<rect x="16" y="4" class="st1" width="2" height="2"/>
<rect x="10" y="6" class="st0" width="2" height="2"/>
<rect x="12" y="6" class="st1" width="2" height="2"/>
<rect x="14" y="6" class="st1" width="2" height="2"/>
<rect x="16" y="6" class="st1" width="2" height="2"/>
<rect x="8" y="8" class="st0" width="2" height="2"/>
<rect x="10" y="8" class="st1" width="2" height="2"/>
<rect x="12" y="8" class="st1" width="2" height="2"/>
<rect x="14" y="8" class="st2" width="2" height="2"/>
<rect x="16" y="8" class="st2" width="2" height="2"/>
<rect x="2" y="10" class="st0" width="2" height="2"/>
<rect x="4" y="10" class="st0" width="2" height="2"/>
<rect x="6" y="10" class="st1" width="2" height="2"/>
<rect x="8" y="10" class="st1" width="2" height="2"/>
<rect x="10" y="10" class="st1" width="2" height="2"/>
<rect x="12" y="10" class="st2" width="2" height="2"/>
<rect x="14" y="10" class="st2" width="2" height="2"/>
<rect x="16" y="10" class="st2" width="2" height="2"/>
<rect x="20" y="10" class="st2" width="2" height="2"/>
<rect x="28" y="10" class="st2" width="2" height="2"/>
<rect y="12" class="st1" width="2" height="2"/>
<rect x="2" y="12" class="st1" width="2" height="2"/>
<rect x="4" y="12" class="st1" width="2" height="2"/>
<rect x="6" y="12" class="st2" width="2" height="2"/>
<rect x="8" y="12" class="st2" width="2" height="2"/>
<rect x="10" y="12" class="st2" width="2" height="2"/>
<rect x="12" y="12" class="st2" width="2" height="2"/>
<rect x="14" y="12" class="st2" width="2" height="2"/>
<rect x="16" y="12" class="st2" width="2" height="2"/>
<rect x="22" y="12" class="st2" width="2" height="2"/>
<rect x="26" y="12" class="st2" width="2" height="2"/>
<rect y="14" class="st1" width="2" height="2"/>
<rect x="2" y="14" class="st2" width="2" height="2"/>
<rect x="4" y="14" class="st2" width="2" height="2"/>
<rect x="6" y="14" class="st2" width="2" height="2"/>
<rect x="8" y="14" class="st2" width="2" height="2"/>
<rect x="10" y="14" class="st2" width="2" height="2"/>
<rect x="12" y="14" class="st2" width="2" height="2"/>
<rect x="14" y="14" class="st2" width="2" height="2"/>
<rect x="16" y="14" class="st2" width="2" height="2"/>
<rect x="24" y="14" class="st2" width="2" height="2"/>
<rect y="16" class="st2" width="2" height="2"/>
<rect x="2" y="16" class="st2" width="2" height="2"/>
<rect x="4" y="16" class="st2" width="2" height="2"/>
<rect x="6" y="16" class="st2" width="2" height="2"/>
<rect x="8" y="16" class="st2" width="2" height="2"/>
<rect x="10" y="16" class="st2" width="2" height="2"/>
<rect x="12" y="16" class="st2" width="2" height="2"/>
<rect x="14" y="16" class="st2" width="2" height="2"/>
<rect x="16" y="16" class="st2" width="2" height="2"/>
<rect x="22" y="16" class="st2" width="2" height="2"/>
<rect x="26" y="16" class="st2" width="2" height="2"/>
<rect y="18" class="st2" width="2" height="2"/>
<rect x="2" y="18" class="st2" width="2" height="2"/>
<rect x="4" y="18" class="st2" width="2" height="2"/>
<rect x="6" y="18" class="st2" width="2" height="2"/>
<rect x="8" y="18" class="st2" width="2" height="2"/>
<rect x="10" y="18" class="st2" width="2" height="2"/>
<rect x="12" y="18" class="st2" width="2" height="2"/>
<rect x="14" y="18" class="st2" width="2" height="2"/>
<rect x="16" y="18" class="st2" width="2" height="2"/>
<rect x="20" y="18" class="st2" width="2" height="2"/>
<rect x="28" y="18" class="st2" width="2" height="2"/>
<rect x="2" y="20" class="st2" width="2" height="2"/>
<rect x="4" y="20" class="st2" width="2" height="2"/>
<rect x="6" y="20" class="st2" width="2" height="2"/>
<rect x="8" y="20" class="st2" width="2" height="2"/>
<rect x="10" y="20" class="st2" width="2" height="2"/>
<rect x="12" y="20" class="st2" width="2" height="2"/>
<rect x="14" y="20" class="st2" width="2" height="2"/>
<rect x="16" y="20" class="st2" width="2" height="2"/>
<rect x="8" y="22" class="st2" width="2" height="2"/>
<rect x="10" y="22" class="st2" width="2" height="2"/>
<rect x="12" y="22" class="st2" width="2" height="2"/>
<rect x="14" y="22" class="st2" width="2" height="2"/>
<rect x="16" y="22" class="st2" width="2" height="2"/>
<rect x="10" y="24" class="st2" width="2" height="2"/>
<rect x="12" y="24" class="st2" width="2" height="2"/>
<rect x="14" y="24" class="st2" width="2" height="2"/>
<rect x="16" y="24" class="st2" width="2" height="2"/>
<rect x="12" y="26" class="st2" width="2" height="2"/>
<rect x="14" y="26" class="st2" width="2" height="2"/>
<rect x="16" y="26" class="st2" width="2" height="2"/>
<rect x="14" y="28" class="st2" width="2" height="2"/>
<rect x="16" y="28" class="st2" width="2" height="2"/>
<rect x="66" y="2" class="st2" width="2" height="2"/>
<rect x="68" y="2" class="st2" width="2" height="2"/>
<rect x="56" y="4" class="st2" width="2" height="2"/>
<rect x="58" y="4" class="st2" width="2" height="2"/>
<rect x="64" y="4" class="st2" width="2" height="2"/>
<rect x="66" y="4" class="st2" width="2" height="2"/>
<rect x="68" y="4" class="st2" width="2" height="2"/>
<rect x="70" y="4" class="st2" width="2" height="2"/>
<rect x="76" y="4" class="st2" width="2" height="2"/>
<rect x="78" y="4" class="st2" width="2" height="2"/>
<rect x="56" y="6" class="st2" width="2" height="2"/>
<rect x="58" y="6" class="st2" width="2" height="2"/>
<rect x="60" y="6" class="st2" width="2" height="2"/>
<rect x="62" y="6" class="st2" width="2" height="2"/>
<rect x="64" y="6" class="st2" width="2" height="2"/>
<rect x="66" y="6" class="st2" width="2" height="2"/>
<rect x="68" y="6" class="st2" width="2" height="2"/>
<rect x="70" y="6" class="st2" width="2" height="2"/>
<rect x="72" y="6" class="st2" width="2" height="2"/>
<rect x="74" y="6" class="st2" width="2" height="2"/>
<rect x="76" y="6" class="st2" width="2" height="2"/>
<rect x="78" y="6" class="st2" width="2" height="2"/>
<rect x="58" y="8" class="st2" width="2" height="2"/>
<rect x="60" y="8" class="st2" width="2" height="2"/>
<rect x="62" y="8" class="st2" width="2" height="2"/>
<rect x="64" y="8" class="st2" width="2" height="2"/>
<rect x="70" y="8" class="st2" width="2" height="2"/>
<rect x="72" y="8" class="st2" width="2" height="2"/>
<rect x="74" y="8" class="st2" width="2" height="2"/>
<rect x="76" y="8" class="st2" width="2" height="2"/>
<rect x="58" y="10" class="st2" width="2" height="2"/>
<rect x="60" y="10" class="st2" width="2" height="2"/>
<rect x="62" y="10" class="st2" width="2" height="2"/>
<rect x="72" y="10" class="st2" width="2" height="2"/>
<rect x="74" y="10" class="st2" width="2" height="2"/>
<rect x="76" y="10" class="st2" width="2" height="2"/>
<rect x="56" y="12" class="st2" width="2" height="2"/>
<rect x="58" y="12" class="st2" width="2" height="2"/>
<rect x="60" y="12" class="st2" width="2" height="2"/>
<rect x="74" y="12" class="st2" width="2" height="2"/>
<rect x="76" y="12" class="st2" width="2" height="2"/>
<rect x="78" y="12" class="st2" width="2" height="2"/>
<rect x="54" y="14" class="st2" width="2" height="2"/>
<rect x="56" y="14" class="st2" width="2" height="2"/>
<rect x="58" y="14" class="st2" width="2" height="2"/>
<rect x="76" y="14" class="st2" width="2" height="2"/>
<rect x="78" y="14" class="st2" width="2" height="2"/>
<rect x="80" y="14" class="st2" width="2" height="2"/>
<rect x="54" y="16" class="st2" width="2" height="2"/>
<rect x="56" y="16" class="st2" width="2" height="2"/>
<rect x="58" y="16" class="st2" width="2" height="2"/>
<rect x="76" y="16" class="st2" width="2" height="2"/>
<rect x="78" y="16" class="st2" width="2" height="2"/>
<rect x="80" y="16" class="st2" width="2" height="2"/>
<rect x="56" y="18" class="st2" width="2" height="2"/>
<rect x="58" y="18" class="st2" width="2" height="2"/>
<rect x="60" y="18" class="st2" width="2" height="2"/>
<rect x="74" y="18" class="st2" width="2" height="2"/>
<rect x="76" y="18" class="st2" width="2" height="2"/>
<rect x="78" y="18" class="st2" width="2" height="2"/>
<rect x="58" y="20" class="st2" width="2" height="2"/>
<rect x="60" y="20" class="st2" width="2" height="2"/>
<rect x="62" y="20" class="st2" width="2" height="2"/>
<rect x="72" y="20" class="st2" width="2" height="2"/>
<rect x="74" y="20" class="st2" width="2" height="2"/>
<rect x="76" y="20" class="st2" width="2" height="2"/>
<rect x="58" y="22" class="st2" width="2" height="2"/>
<rect x="60" y="22" class="st2" width="2" height="2"/>
<rect x="62" y="22" class="st2" width="2" height="2"/>
<rect x="64" y="22" class="st2" width="2" height="2"/>
<rect x="70" y="22" class="st2" width="2" height="2"/>
<rect x="72" y="22" class="st2" width="2" height="2"/>
<rect x="74" y="22" class="st2" width="2" height="2"/>
<rect x="76" y="22" class="st2" width="2" height="2"/>
<rect x="56" y="24" class="st2" width="2" height="2"/>
<rect x="58" y="24" class="st2" width="2" height="2"/>
<rect x="60" y="24" class="st2" width="2" height="2"/>
<rect x="62" y="24" class="st2" width="2" height="2"/>
<rect x="64" y="24" class="st2" width="2" height="2"/>
<rect x="66" y="24" class="st2" width="2" height="2"/>
<rect x="68" y="24" class="st2" width="2" height="2"/>
<rect x="70" y="24" class="st2" width="2" height="2"/>
<rect x="72" y="24" class="st2" width="2" height="2"/>
<rect x="74" y="24" class="st2" width="2" height="2"/>
<rect x="76" y="24" class="st2" width="2" height="2"/>
<rect x="78" y="24" class="st2" width="2" height="2"/>
<rect x="56" y="26" class="st2" width="2" height="2"/>
<rect x="58" y="26" class="st2" width="2" height="2"/>
<rect x="64" y="26" class="st2" width="2" height="2"/>
<rect x="66" y="26" class="st2" width="2" height="2"/>
<rect x="68" y="26" class="st2" width="2" height="2"/>
<rect x="70" y="26" class="st2" width="2" height="2"/>
<rect x="76" y="26" class="st2" width="2" height="2"/>
<rect x="78" y="26" class="st2" width="2" height="2"/>
<rect x="66" y="28" class="st2" width="2" height="2"/>
<rect x="68" y="28" class="st2" width="2" height="2"/>
</svg>
